HIERARCHY
ROOT Hips
{
	OFFSET 0.000000 100.481300 0.000000
	CHANNELS 6 Xposition Yposition Zposition Xrotation Yrotation Zrotation
	JOINT Spine
	{
		OFFSET -0.279200 12.230698 -2.892100
		CHANNELS 3 Xrotation Yrotation Zrotation
		JOINT Spine1
		{
			OFFSET -0.325700 14.269203 -3.374200
			CHANNELS 3 Xrotation Yrotation Zrotation
			JOINT Spine2
			{
				OFFSET -0.372300 16.307602 -0.352600
				CHANNELS 3 Xrotation Yrotation Zrotation
				JOINT Neck
				{
					OFFSET -0.418800 17.814194 8.416900
					CHANNELS 3 Xrotation Yrotation Zrotation
					JOINT Head
					{
						OFFSET 0.000000 7.031097 3.806800
						CHANNELS 3 Xrotation Yrotation Zrotation
						JOINT HeadTop_End
						{
							OFFSET 0.000000 24.646606 12.978600
							CHANNELS 3 Xrotation Yrotation Zrotation
							End Site
							{
								OFFSET 0.000000 27.854965 0.000000
							}
						}
					}
				}
				JOINT LeftShoulder
				{
					OFFSET 16.952999 14.495407 -7.737500
					CHANNELS 3 Xrotation Yrotation Zrotation
					JOINT LeftArm
					{
						OFFSET 9.308998 -2.777710 0.208600
						CHANNELS 3 Xrotation Yrotation Zrotation
						JOINT LeftForeArm
						{
							OFFSET 29.972298 0.000000 0.000000
							CHANNELS 3 Xrotation Yrotation Zrotation
							JOINT LeftHand
							{
								OFFSET 26.026505 0.000000 0.000000
								CHANNELS 3 Xrotation Yrotation Zrotation
								JOINT LeftHandThumb1
								{
									OFFSET 12.240501 -7.147949 9.207150
									CHANNELS 3 Xrotation Yrotation Zrotation
									JOINT LeftHandThumb2
									{
										OFFSET 4.138618 -2.389435 2.389433
										CHANNELS 3 Xrotation Yrotation Zrotation
										JOINT LeftHandThumb3
										{
											OFFSET 2.726913 -1.574387 1.574386
											CHANNELS 3 Xrotation Yrotation Zrotation
											JOINT LeftHandThumb4
											{
												OFFSET 3.941010 -2.275345 2.275342
												CHANNELS 3 Xrotation Yrotation Zrotation
												End Site
												{
													OFFSET -0.005798 5.087799 0.009903
												}
											}
										}
									}
								}
								JOINT LeftHandIndex1
								{
									OFFSET 24.424698 -1.985611 5.953459
									CHANNELS 3 Xrotation Yrotation Zrotation
									JOINT LeftHandIndex2
									{
										OFFSET 6.426697 0.000000 0.000000
										CHANNELS 3 Xrotation Yrotation Zrotation
										JOINT LeftHandIndex3
										{
											OFFSET 5.337898 0.000000 0.000000
											CHANNELS 3 Xrotation Yrotation Zrotation
											JOINT LeftHandIndex4
											{
												OFFSET 4.409401 0.000000 0.000000
												CHANNELS 3 Xrotation Yrotation Zrotation
												End Site
												{
													OFFSET 0.000000 4.409363 0.014373
												}
											}
										}
									}
								}
								JOINT LeftHandMiddle1
								{
									OFFSET 23.810104 0.000000 0.000000
									CHANNELS 3 Xrotation Yrotation Zrotation
									JOINT LeftHandMiddle2
									{
										OFFSET 7.176498 0.000000 0.000000
										CHANNELS 3 Xrotation Yrotation Zrotation
										JOINT LeftHandMiddle3
										{
											OFFSET 6.774902 0.000000 0.000000
											CHANNELS 3 Xrotation Yrotation Zrotation
											JOINT LeftHandMiddle4
											{
												OFFSET 5.403328 0.000000 0.000000
												CHANNELS 3 Xrotation Yrotation Zrotation
												End Site
												{
													OFFSET -0.027702 5.403244 0.017414
												}
											}
										}
									}
								}
								JOINT LeftHandRing1
								{
									OFFSET 22.908401 -0.839279 -6.020567
									CHANNELS 3 Xrotation Yrotation Zrotation
									JOINT LeftHandRing2
									{
										OFFSET 6.337502 0.000000 0.000000
										CHANNELS 3 Xrotation Yrotation Zrotation
										JOINT LeftHandRing3
										{
											OFFSET 5.779297 0.000000 0.000000
											CHANNELS 3 Xrotation Yrotation Zrotation
											JOINT LeftHandRing4
											{
												OFFSET 4.965698 0.000000 0.000000
												CHANNELS 3 Xrotation Yrotation Zrotation
												End Site
												{
													OFFSET 0.000000 4.965668 0.016186
												}
											}
										}
									}
								}
								JOINT LeftHandPinky1
								{
									OFFSET 20.037003 -1.530319 -10.950146
									CHANNELS 3 Xrotation Yrotation Zrotation
									JOINT LeftHandPinky2
									{
										OFFSET 5.254700 0.000000 0.000000
										CHANNELS 3 Xrotation Yrotation Zrotation
										JOINT LeftHandPinky3
										{
											OFFSET 4.810204 0.000000 0.000000
											CHANNELS 3 Xrotation Yrotation Zrotation
											JOINT LeftHandPinky4
											{
												OFFSET 3.647202 0.000000 0.000000
												CHANNELS 3 Xrotation Yrotation Zrotation
												End Site
												{
													OFFSET 0.000000 3.647186 0.011889
												}
											}
										}
									}
								}
							}
						}
					}
				}
				JOINT RightShoulder
				{
					OFFSET -15.141001 14.495407 -7.737500
					CHANNELS 3 Xrotation Yrotation Zrotation
					JOINT RightArm
					{
						OFFSET -9.308998 -2.777710 0.208500
						CHANNELS 3 Xrotation Yrotation Zrotation
						JOINT RightForeArm
						{
							OFFSET -29.972300 0.000000 0.000000
							CHANNELS 3 Xrotation Yrotation Zrotation
							JOINT RightHand
							{
								OFFSET -26.026505 0.000000 0.000000
								CHANNELS 3 Xrotation Yrotation Zrotation
								JOINT RightHandThumb1
								{
									OFFSET -12.240601 -7.148026 9.207092
									CHANNELS 3 Xrotation Yrotation Zrotation
									JOINT RightHandThumb2
									{
										OFFSET -4.138618 -2.389435 2.389433
										CHANNELS 3 Xrotation Yrotation Zrotation
										JOINT RightHandThumb3
										{
											OFFSET -2.726974 -1.574417 1.574421
											CHANNELS 3 Xrotation Yrotation Zrotation
											JOINT RightHandThumb4
											{
												OFFSET -3.941010 -2.275345 2.275343
												CHANNELS 3 Xrotation Yrotation Zrotation
												End Site
												{
													OFFSET 0.005814 5.087799 0.009927
												}
											}
										}
									}
								}
								JOINT RightHandIndex1
								{
									OFFSET -24.424698 -1.985657 5.953444
									CHANNELS 3 Xrotation Yrotation Zrotation
									JOINT RightHandIndex2
									{
										OFFSET -6.426697 0.000000 0.000000
										CHANNELS 3 Xrotation Yrotation Zrotation
										JOINT RightHandIndex3
										{
											OFFSET -5.337898 0.000000 0.000000
											CHANNELS 3 Xrotation Yrotation Zrotation
											JOINT RightHandIndex4
											{
												OFFSET -4.409401 0.000000 0.000000
												CHANNELS 3 Xrotation Yrotation Zrotation
												End Site
												{
													OFFSET 0.000000 4.409363 0.014408
												}
											}
										}
									}
								}
								JOINT RightHandMiddle1
								{
									OFFSET -23.810097 0.000000 0.000000
									CHANNELS 3 Xrotation Yrotation Zrotation
									JOINT RightHandMiddle2
									{
										OFFSET -7.176498 0.000000 0.000000
										CHANNELS 3 Xrotation Yrotation Zrotation
										JOINT RightHandMiddle3
										{
											OFFSET -6.774902 0.000000 0.000000
											CHANNELS 3 Xrotation Yrotation Zrotation
											JOINT RightHandMiddle4
											{
												OFFSET -5.403328 0.000000 0.000000
												CHANNELS 3 Xrotation Yrotation Zrotation
												End Site
												{
													OFFSET 0.027702 5.403244 0.017457
												}
											}
										}
									}
								}
								JOINT RightHandRing1
								{
									OFFSET -22.908302 -0.839325 -6.020576
									CHANNELS 3 Xrotation Yrotation Zrotation
									JOINT RightHandRing2
									{
										OFFSET -6.337502 0.000000 0.000000
										CHANNELS 3 Xrotation Yrotation Zrotation
										JOINT RightHandRing3
										{
											OFFSET -5.779297 0.000000 0.000000
											CHANNELS 3 Xrotation Yrotation Zrotation
											JOINT RightHandRing4
											{
												OFFSET -4.965698 0.000000 0.000000
												CHANNELS 3 Xrotation Yrotation Zrotation
												End Site
												{
													OFFSET 0.000000 4.965668 0.016226
												}
											}
										}
									}
								}
								JOINT RightHandPinky1
								{
									OFFSET -20.037003 -1.530334 -10.950259
									CHANNELS 3 Xrotation Yrotation Zrotation
									JOINT RightHandPinky2
									{
										OFFSET -5.254700 0.000000 0.000000
										CHANNELS 3 Xrotation Yrotation Zrotation
										JOINT RightHandPinky3
										{
											OFFSET -4.810204 0.000000 0.000000
											CHANNELS 3 Xrotation Yrotation Zrotation
											JOINT RightHandPinky4
											{
												OFFSET -3.647202 0.000000 0.000000
												CHANNELS 3 Xrotation Yrotation Zrotation
												End Site
												{
													OFFSET 0.000000 3.647186 0.011917
												}
											}
										}
									}
								}
							}
						}
					}
				}
			}
		}
	}
	JOINT LeftUpLeg
	{
		OFFSET 15.427100 -6.655098 0.678600
		CHANNELS 3 Xrotation Yrotation Zrotation
		JOINT LeftLeg
		{
			OFFSET 4.081073 -39.591068 13.024000
			CHANNELS 3 Xrotation Yrotation Zrotation
			JOINT LeftFoot
			{
				OFFSET -4.081074 -37.707932 -15.979700
				CHANNELS 3 Xrotation Yrotation Zrotation
				JOINT LeftToeBase
				{
					OFFSET 5.346399 -15.068900 20.645000
					CHANNELS 3 Xrotation Yrotation Zrotation
					JOINT LeftToe_End
					{
						OFFSET 2.754700 0.931300 11.300900
						CHANNELS 3 Xrotation Yrotation Zrotation
						End Site
						{
							OFFSET 0.000000 11.669021 0.000000
						}
					}
				}
			}
		}
	}
	JOINT RightUpLeg
	{
		OFFSET -15.569500 -6.655098 0.678600
		CHANNELS 3 Xrotation Yrotation Zrotation
		JOINT RightLeg
		{
			OFFSET -4.081825 -39.591045 13.023800
			CHANNELS 3 Xrotation Yrotation Zrotation
			JOINT RightFoot
			{
				OFFSET 4.081824 -37.707954 -15.979600
				CHANNELS 3 Xrotation Yrotation Zrotation
				JOINT RightToeBase
				{
					OFFSET -5.346400 -15.068900 20.645000
					CHANNELS 3 Xrotation Yrotation Zrotation
					JOINT RightToe_End
					{
						OFFSET -2.754700 0.931300 11.300900
						CHANNELS 3 Xrotation Yrotation Zrotation
						End Site
						{
							OFFSET 0.000000 11.669021 0.000000
						}
					}
				}
			}
		}
	}
}
MOTION
Frames: 4
Frame Time: 0.033333
0.031595 86.933350 -1.605659 5.174850 -38.338617 2.640841 -3.881465 -0.074004 3.016444 -2.515170 -0.510099 3.498600 -2.693184 -0.328367 3.421070 12.277260 0.723196 -3.968031 -4.546302 6.239604 -6.553875 -0.000000 0.000002 -0.000000 0.540701 10.191536 -10.509361 -9.171797 -22.837248 -46.132071 0.000006 -107.542770 -0.000001 -12.963271 -9.076364 8.962378 33.463446 17.692287 -10.027834 19.178121 62.038301 -29.873355 4.891696 29.062482 -8.403469 -0.000000 0.000002 -0.000006 7.843418 6.813905 -98.057310 7.962718 6.796066 -99.064224 2.399758 5.227181 -49.295364 0.000000 -0.000002 -0.000002 7.841499 6.814182 -98.041102 7.964644 6.795772 -99.080425 2.399768 5.227186 -49.295371 -0.000001 0.000000 -0.000001 7.843419 6.813905 -98.057310 7.962725 6.796064 -99.064224 2.399759 5.227179 -49.295367 0.000002 -0.000001 0.000001 11.884142 6.247170 -98.006630 7.958066 2.710183 -99.007834 2.399764 5.227184 -49.295367 -0.000000 0.000001 0.000002 -3.188001 31.284715 13.523776 4.504464 20.048335 36.765785 -0.000015 133.037182 0.000015 -4.268362 10.951402 -20.834481 44.079159 -5.327238 5.322806 68.067213 -31.397014 62.105469 26.811566 -12.735082 7.144033 0.000000 -0.000003 0.000000 8.518560 -6.769302 103.092874 8.518559 -6.769303 103.092908 2.609839 -5.432563 51.294072 0.000001 0.000000 -0.000000 8.518559 -6.769301 103.092874 8.518564 -6.769305 103.092908 2.609837 -5.432567 51.294068 -0.000001 -0.000001 0.000000 8.518560 -6.769306 103.092867 8.518568 -6.769312 103.092915 2.609840 -5.432563 51.294068 -0.000001 0.000000 -0.000000 8.518562 -6.769302 103.092874 8.518573 -6.769312 103.092908 2.609837 -5.432558 51.294075 0.000000 -0.000001 0.000000 -26.413561 4.337022 23.566987 29.246119 3.525654 -0.393141 -3.685334 1.742870 -19.447577 -1.671048 0.000014 -0.000002 -0.000000 -0.000000 -0.000000 -22.259897 -7.844321 -20.374325 29.480456 7.982317 2.676837 -11.884224 -3.239229 12.709200 -0.070268 -0.000163 0.140157 -0.000000 -0.000001 -0.000000 
-0.284494 86.152336 -1.822206 4.309225 -34.801460 1.713163 -3.841568 -0.105960 3.347254 -2.416106 -0.604963 3.423256 -2.592480 -0.424043 3.356786 12.401264 0.673971 -3.767477 -4.394565 5.754391 -5.996199 -0.000000 -0.000001 0.000000 0.732491 9.658513 -10.680181 -8.939853 -23.401831 -46.294401 -0.000001 -109.504263 -0.000003 -13.418460 -9.323736 9.501159 33.463443 17.692287 -10.027836 19.178119 62.038308 -29.873352 4.891699 29.062486 -8.403469 0.000000 0.000000 -0.000003 7.843417 6.813906 -98.057310 7.962722 6.796067 -99.064217 2.399761 5.227180 -49.295364 -0.000001 -0.000000 -0.000001 7.841499 6.814182 -98.041102 7.964649 6.795775 -99.080425 2.399764 5.227188 -49.295364 -0.000000 0.000000 0.000002 7.843417 6.813907 -98.057310 7.962722 6.796069 -99.064224 2.399760 5.227179 -49.295360 -0.000000 -0.000002 0.000001 11.884144 6.247172 -98.006623 7.958068 2.710186 -99.007840 2.399766 5.227183 -49.295367 -0.000001 -0.000000 0.000001 -3.216767 31.510265 13.692448 4.248107 19.218190 37.037947 0.000010 132.275042 -0.000029 -4.045414 10.853088 -19.901556 44.079155 -5.327237 5.322810 68.067220 -31.397017 62.105469 26.811566 -12.735084 7.144032 0.000001 0.000001 -0.000001 8.518556 -6.769302 103.092881 8.518556 -6.769306 103.092908 2.609839 -5.432566 51.294075 -0.000001 0.000001 -0.000000 8.518556 -6.769300 103.092881 8.518564 -6.769306 103.092908 2.609839 -5.432569 51.294062 0.000001 -0.000002 -0.000000 8.518556 -6.769306 103.092867 8.518572 -6.769313 103.092922 2.609839 -5.432563 51.294075 0.000001 -0.000000 -0.000000 8.518557 -6.769301 103.092881 8.518571 -6.769314 103.092908 2.609836 -5.432557 51.294072 0.000001 -0.000000 0.000001 -29.066085 4.351687 23.212321 30.852965 1.285444 -0.036784 -3.163062 1.287991 -18.330653 -0.593355 0.000000 -0.000001 -0.000000 0.000000 -0.000000 -20.291167 -7.762759 -20.949367 31.376462 5.157384 3.229418 -14.113968 -3.941443 13.295346 -0.004442 0.000027 -0.000001 -0.000000 0.000001 -0.000000 
-0.593365 85.413200 -2.024521 3.647736 -30.895876 1.142565 -3.781825 -0.242188 3.566062 -2.264663 -0.878440 3.266850 -2.425017 -0.703395 3.230371 12.466178 0.589127 -3.625707 -4.279607 5.055861 -5.488404 -0.000000 0.000001 0.000000 0.958888 8.372735 -10.845184 -9.084964 -22.790499 -46.019120 0.000074 -110.888210 0.000081 -13.557587 -9.247648 9.831799 33.463436 17.692290 -10.027831 19.178118 62.038301 -29.873345 4.891700 29.062479 -8.403469 0.000001 -0.000000 -0.000001 7.843418 6.813906 -98.057310 7.962722 6.796069 -99.064224 2.399762 5.227182 -49.295364 0.000003 0.000002 -0.000001 7.841498 6.814183 -98.041095 7.964643 6.795771 -99.080425 2.399765 5.227186 -49.295371 -0.000002 -0.000001 -0.000001 7.843418 6.813906 -98.057310 7.962723 6.796070 -99.064224 2.399757 5.227178 -49.295364 0.000000 -0.000000 -0.000001 11.884141 6.247174 -98.006630 7.958068 2.710185 -99.007840 2.399765 5.227184 -49.295371 0.000002 0.000000 0.000002 -3.178008 31.685961 13.881598 3.436313 18.647458 37.211014 0.000021 131.867635 -0.000020 -3.777495 10.814402 -19.027153 44.079152 -5.327237 5.322807 68.067220 -31.397014 62.105469 26.811568 -12.735084 7.144034 -0.000000 0.000000 -0.000001 8.518559 -6.769300 103.092881 8.518562 -6.769304 103.092908 2.609839 -5.432562 51.294068 0.000001 -0.000000 -0.000001 8.518558 -6.769299 103.092881 8.518566 -6.769307 103.092915 2.609835 -5.432567 51.294068 0.000000 0.000000 0.000000 8.518557 -6.769307 103.092867 8.518568 -6.769313 103.092922 2.609839 -5.432563 51.294072 0.000002 0.000000 -0.000000 8.518560 -6.769300 103.092874 8.518574 -6.769313 103.092915 2.609835 -5.432556 51.294075 0.000001 0.000000 -0.000000 -31.178792 2.928405 21.929789 31.995430 -0.793122 0.511914 -2.567647 0.894779 -17.661640 -0.684405 0.000007 -0.000000 -0.000000 0.000002 0.000000 -18.569225 -8.610650 -21.686523 33.275124 2.632086 3.501539 -16.252517 -4.577475 14.056522 -0.007190 -0.000006 0.000003 0.000000 -0.000001 0.000000 
-0.896054 84.857780 -2.156222 3.213940 -26.910812 0.757176 -3.744660 -0.407249 3.708314 -2.138164 -1.187233 3.124267 -2.279758 -1.017181 3.120946 12.533350 0.452526 -3.574145 -4.120563 4.009345 -4.948161 0.000000 -0.000002 0.000000 1.179493 6.566492 -10.916589 -9.547372 -21.650055 -45.610842 0.000045 -111.751601 0.000043 -14.001690 -9.050607 9.978046 33.463446 17.692294 -10.027828 19.178118 62.038301 -29.873349 4.891701 29.062482 -8.403471 -0.000002 0.000004 -0.000002 7.843418 6.813905 -98.057310 7.962719 6.796067 -99.064224 2.399758 5.227182 -49.295360 -0.000001 -0.000000 -0.000001 7.841503 6.814180 -98.041102 7.964643 6.795772 -99.080432 2.399767 5.227186 -49.295371 -0.000002 -0.000001 0.000002 7.843419 6.813906 -98.057303 7.962726 6.796068 -99.064224 2.399761 5.227179 -49.295367 -0.000000 0.000000 -0.000000 11.884148 6.247171 -98.006623 7.958067 2.710185 -99.007840 2.399763 5.227184 -49.295371 0.000003 -0.000001 -0.000001 -3.138050 31.901358 14.038282 2.351623 17.995740 37.438743 -0.000015 132.062063 0.000022 -3.590082 10.892883 -18.275822 44.079155 -5.327236 5.322809 68.067220 -31.397014 62.105476 26.811566 -12.735087 7.144030 0.000001 -0.000002 0.000001 8.518559 -6.769302 103.092881 8.518559 -6.769304 103.092915 2.609839 -5.432562 51.294072 -0.000001 -0.000000 -0.000001 8.518557 -6.769301 103.092881 8.518564 -6.769305 103.092908 2.609837 -5.432566 51.294075 -0.000000 0.000000 0.000000 8.518557 -6.769309 103.092867 8.518570 -6.769312 103.092915 2.609839 -5.432563 51.294072 0.000000 -0.000000 -0.000001 8.518559 -6.769302 103.092874 8.518573 -6.769313 103.092908 2.609836 -5.432558 51.294075 0.000000 0.000001 -0.000001 -32.697724 0.507475 20.232998 32.571335 -2.353381 0.866130 -1.845203 0.595226 -17.322505 -0.845395 0.000002 -0.000002 -0.000000 0.000002 0.000000 -17.001000 -10.461815 -22.352168 34.577522 0.696463 3.563235 -17.995211 -5.151890 14.942956 -0.008252 0.000001 0.000002 0.000000 0.000001 0.000000 
